<svg id="Capa_1" enable-background="new 0 0 512 512" height="512" viewBox="0 0 512 512" width="512" xmlns="http://www.w3.org/2000/svg"><g><g><g><path d="m491.81 80.914h-45.96c-5.915-37.092-38.103-65.537-76.835-65.537-38.733 0-70.932 28.443-76.847 65.537h-45.948c-11.133 0-20.19 9.058-20.19 20.19v168.695h-6.222c-5.916-37.09-38.091-65.536-76.822-65.536-38.732 0-70.92 28.444-76.834 65.536h-45.962c-11.133 0-20.19 9.058-20.19 20.19v186.444c0 11.133 9.058 20.19 20.19 20.19h245.591c11.133 0 20.19-9.058 20.19-20.19v-168.695h146.134c4.146 0 7.506-3.36 7.506-7.506s-3.36-7.506-7.506-7.506h-146.134v-2.737c0-11.133-9.058-20.19-20.19-20.19h-24.741v-88.397c7.278 1.503 18.569 3.758 32.586 6.312v6.81c0 10.286 8.369 18.655 18.655 18.655h8.643c10.013 0 18.185-7.936 18.614-17.845 16.426 2.337 32.95 3.521 49.475 3.521s33.05-1.184 49.475-3.521c.429 9.909 8.601 17.845 18.614 17.845h8.643c10.286 0 18.655-8.369 18.655-18.655v-6.811c14.017-2.554 25.31-4.809 32.587-6.312v106.145c0 2.856-2.323 5.18-5.179 5.18h-24.681c-4.146 0-7.506 3.36-7.506 7.506s3.36 7.506 7.506 7.506h24.681c11.133 0 20.19-9.058 20.19-20.191v-186.443c.002-11.133-9.056-20.19-20.188-20.19zm-348.824 138.361c30.43 0 55.855 21.755 61.59 50.524h-16.838c-5.403-19.646-23.412-34.123-44.752-34.123-21.339 0-39.346 14.478-44.75 34.123h-16.85c5.734-28.771 31.168-50.524 61.6-50.524zm28.893 50.524h-57.786c4.794-11.224 15.936-19.111 28.893-19.111s24.098 7.887 28.893 19.111zm99.081 206.634c0 2.856-2.323 5.179-5.179 5.179h-245.591c-2.856 0-5.179-2.323-5.179-5.179v-106.145c7.274 1.502 18.566 3.757 32.587 6.311v6.811c0 10.286 8.369 18.655 18.655 18.655h8.643c10.013 0 18.186-7.936 18.614-17.846 16.426 2.338 32.95 3.521 49.475 3.521 16.526 0 33.049-1.184 49.475-3.521.428 9.909 8.601 17.846 18.614 17.846h8.643c10.286 0 18.655-8.369 18.655-18.655v-6.811c14.019-2.554 25.313-4.809 32.586-6.311v106.145zm-208.35-93.023v-21.801c0-2.009 1.634-3.643 3.643-3.643h8.643c2.009 0 3.644 1.634 3.644 3.643v21.801c0 2.009-1.634 3.643-3.644 3.643h-8.643c-2.009.001-3.643-1.633-3.643-3.643zm144.822 0v-21.801c0-2.009 1.634-3.643 3.643-3.643h8.643c2.009 0 3.644 1.634 3.644 3.643v21.801c0 2.009-1.634 3.643-3.644 3.643h-8.643c-2.01.001-3.643-1.633-3.643-3.643zm58.349-98.6c2.856 0 5.179 2.323 5.179 5.179v64.967c-6.441 1.351-17.855 3.673-32.6 6.386-.145-10.162-8.446-18.387-18.641-18.387h-8.643c-10.286 0-18.655 8.369-18.655 18.655v7.451c-32.813 4.876-66.056 4.876-98.869 0v-7.451c0-10.286-8.369-18.655-18.655-18.655h-8.643c-10.196 0-18.496 8.225-18.641 18.387-14.741-2.712-26.157-5.035-32.6-6.386v-64.967c0-2.856 2.323-5.179 5.179-5.179zm103.233-254.421c30.429 0 55.841 21.757 61.576 50.525h-16.827c-5.404-19.646-23.409-34.124-44.749-34.124-21.339 0-39.343 14.479-44.747 34.124h-16.841c5.736-28.77 31.158-50.525 61.588-50.525zm28.89 50.525h-57.784c4.795-11.224 15.938-19.112 28.894-19.112 12.956-.001 24.096 7.888 28.89 19.112zm-93.336 113.61c0 2.009-1.634 3.643-3.643 3.643h-8.643c-2.009 0-3.644-1.634-3.644-3.643v-21.8c0-2.009 1.634-3.644 3.644-3.644h8.643c2.01 0 3.643 1.635 3.643 3.644zm144.822 0c0 2.009-1.634 3.643-3.643 3.643h-8.643c-2.01 0-3.644-1.634-3.644-3.643v-21.8c0-2.009 1.634-3.644 3.644-3.644h8.643c2.009 0 3.643 1.635 3.643 3.644zm47.599-28.454c-6.443 1.351-17.861 3.674-32.6 6.386-.146-10.163-8.446-18.387-18.641-18.387h-8.643c-10.286 0-18.655 8.369-18.655 18.656v7.451c-32.812 4.877-66.057 4.877-98.869 0v-7.451c0-10.287-8.369-18.656-18.655-18.656h-8.643c-10.196 0-18.496 8.225-18.641 18.387-14.741-2.713-26.157-5.035-32.6-6.386v-64.966c0-2.856 2.323-5.179 5.179-5.179h245.589c2.856 0 5.179 2.323 5.179 5.179z"/><path d="m440.046 340.559c-4.59-6.042-11.86-9.658-19.493-9.673-7.569 0-14.837 3.589-19.439 9.601l-32.767 42.814c-8.203 10.718-6.156 26.111 4.562 34.313 5.191 3.975 11.623 5.687 18.101 4.827 1.749-.233 3.444-.644 5.065-1.225v17.103c0 5.126-4.17 9.296-9.296 9.296h-40.82c-13.497 0-24.478 10.98-24.478 24.477s10.981 24.478 24.478 24.478h40.82c32.119 0 58.251-26.131 58.251-58.251v-16.907c2.57.898 5.313 1.369 8.138 1.369 5.38 0 10.494-1.723 14.792-4.984 10.748-8.161 12.853-23.546 4.691-34.296zm18.836 65.281c-4.307 3.269-9.887 2.634-13.265-1.814-.001-.001-2.116-2.786-2.116-2.786-1.949-2.565-5.318-3.601-8.372-2.574-3.054 1.028-5.111 3.892-5.111 7.114v32.54c0 23.843-19.396 43.239-43.239 43.239h-40.82c-5.22 0-9.466-4.246-9.466-9.466 0-5.219 4.246-9.465 9.466-9.465h40.82c13.403 0 24.308-10.905 24.308-24.308v-32.857c0-3.217-2.05-6.077-5.098-7.109-3.043-1.03-6.412-.008-8.368 2.547-2.203 2.876-4.543 6.123-8.589 6.661-2.503.334-4.99-.329-6.999-1.867-4.146-3.172-4.938-9.125-1.765-13.269l32.766-42.814c1.781-2.325 4.592-3.714 7.534-3.714 2.936.006 5.748 1.406 7.522 3.741l32.603 42.94c3.158 4.157 2.344 10.107-1.811 13.261z"/><path d="m97.103 171.388c4.591 6.043 11.861 9.659 19.493 9.672 7.569 0 14.836-3.589 19.439-9.6l32.767-42.815c8.202-10.717 6.155-26.111-4.561-34.313-5.191-3.975-11.618-5.688-18.103-4.828-1.747.233-3.443.645-5.064 1.225v-17.101c0-5.126 4.17-9.296 9.296-9.296h40.819c13.497 0 24.477-10.981 24.477-24.478s-10.98-24.477-24.477-24.477h-15.144c-4.146 0-7.506 3.36-7.506 7.506s3.36 7.506 7.506 7.506h15.144c5.219 0 9.465 4.246 9.465 9.465 0 5.22-4.246 9.466-9.465 9.466h-40.819c-13.403 0-24.308 10.905-24.308 24.308v32.856c0 3.217 2.05 6.077 5.098 7.109 3.043 1.031 6.412.008 8.369-2.547 0 0 2.316-3.026 2.318-3.03 3.105-4.057 9.208-4.87 13.269-1.763 4.145 3.172 4.937 9.125 1.765 13.269l-32.766 42.813c-1.781 2.325-4.591 3.714-7.536 3.714-2.934-.006-5.746-1.404-7.521-3.74l-32.603-42.94c-3.157-4.157-2.343-10.107 1.812-13.262 4.167-3.162 10.057-2.413 13.264 1.812 0 0 2.116 2.787 2.116 2.787 1.948 2.567 5.318 3.604 8.373 2.575 3.054-1.028 5.111-3.892 5.111-7.114v-32.54c0-20.997 14.992-38.901 35.648-42.574 4.081-.725 6.802-4.622 6.076-8.703-.724-4.081-4.628-6.806-8.703-6.076-27.832 4.947-48.033 29.067-48.033 57.353v16.907c-2.57-.898-5.314-1.369-8.138-1.369-5.38 0-10.494 1.723-14.792 4.984-10.747 8.161-12.853 23.546-4.691 34.296z"/></g></g></g></svg>