<?xml version="1.0" encoding="utf-8"?>
<!-- Generator: Adobe Illustrator 22.0.1, SVG Export Plug-In . SVG Version: 6.00 Build 0)  -->
<svg version="1.1" id="Layer_1" xmlns="http://www.w3.org/2000/svg" xmlns:xlink="http://www.w3.org/1999/xlink" x="0px" y="0px"
	 viewBox="0 0 72.3 78" style="enable-background:new 0 0 72.3 78;" xml:space="preserve">
<style type="text/css">
	.st0{fill:#BCBEC0;}
</style>
<g>
	<g>
		<g>
			<g>
				<path class="st0" d="M37.1,65.8c-9.3,0-17.9-5.1-22.4-13.2c-0.2-0.3-0.1-0.7,0.3-0.9c0.3-0.2,0.7-0.1,0.9,0.3
					c4.3,7.7,12.4,12.5,21.3,12.5c8.1,0,15.6-4,20.2-10.7c0.2-0.3,0.6-0.4,0.9-0.2c0.3,0.2,0.4,0.6,0.2,0.9
					C53.6,61.6,45.6,65.8,37.1,65.8z"/>
			</g>
			<g>
				<g>
					<g>
						<path class="st0" d="M12.3,38.6C12.2,38.6,12.2,38.6,12.3,38.6c-0.4,0-0.7-0.3-0.6-0.7c0.6-6.3,3.5-12.2,8.2-16.5
							c4.7-4.4,10.9-6.7,17.3-6.7c9.4,0,18,5.1,22.5,13.4c0.2,0.3,0.1,0.7-0.3,0.9c-0.3,0.2-0.7,0.1-0.9-0.3
							C54.2,20.8,46,15.9,37.1,15.9C24.4,15.9,14,25.4,12.9,38C12.9,38.4,12.6,38.6,12.3,38.6z"/>
					</g>
				</g>
			</g>
		</g>
		<g>
			<g>
				<g>
					<g>
						<polygon class="st0" points="33.1,56.8 33.6,58.1 34.9,58.1 33.8,58.9 34.2,60.1 33.1,59.3 32.1,60.1 32.5,58.9 31.4,58.1 
							32.7,58.1 						"/>
					</g>
					<g>
						<polygon class="st0" points="37.2,56.8 37.6,58.1 38.9,58.1 37.9,58.9 38.3,60.1 37.2,59.3 36.1,60.1 36.5,58.9 35.5,58.1 
							36.8,58.1 						"/>
					</g>
					<g>
						<polygon class="st0" points="41.3,56.8 41.7,58.1 43,58.1 41.9,58.9 42.3,60.1 41.3,59.3 40.2,60.1 40.6,58.9 39.5,58.1 
							40.9,58.1 						"/>
					</g>
				</g>
				<g>
					<g>
						<polygon class="st0" points="33.1,22.4 33.6,23.7 34.9,23.7 33.8,24.4 34.2,25.7 33.1,24.9 32.1,25.7 32.5,24.4 31.4,23.7 
							32.7,23.7 						"/>
					</g>
					<g>
						<polygon class="st0" points="37.2,22.4 37.6,23.7 38.9,23.7 37.9,24.4 38.3,25.7 37.2,24.9 36.1,25.7 36.5,24.4 35.5,23.7 
							36.8,23.7 						"/>
					</g>
					<g>
						<polygon class="st0" points="41.3,22.4 41.7,23.7 43,23.7 41.9,24.4 42.3,25.7 41.3,24.9 40.2,25.7 40.6,24.4 39.5,23.7 
							40.9,23.7 						"/>
					</g>
				</g>
			</g>
		</g>
		<g>
			<polygon class="st0" points="17.3,44.6 21.1,36.7 19.1,30.6 8.5,53 13.4,53 15.6,48.4 25.5,48.4 24.4,44.6 			"/>
			<polygon class="st0" points="9.1,52.4 18.9,31.7 20.4,36.5 16.4,44.9 23.8,44.9 24.7,47.7 15.2,47.7 13,52.4 			"/>
			<g>
				<path class="st0" d="M54.4,35c1.1-0.7,2.4-1,3.7-1c0.7,0,1.5,0.1,2.2,0.4c0.8,0.3,1.5,0.7,2.1,1.2l1.8-3.8
					c-0.8-0.5-1.7-1-2.6-1.3c-1.2-0.4-2.5-0.7-3.6-0.7c-1.2,0-2.3,0.2-3.4,0.5l-2,6.1C53.2,35.8,53.7,35.3,54.4,35z"/>
				<path class="st0" d="M54.9,30.5c1-0.3,2-0.4,3.1-0.4c1.1,0,2.2,0.2,3.4,0.6c0.7,0.3,1.4,0.6,2.2,1l-1.4,2.9
					c-0.6-0.4-1.2-0.7-1.8-0.9c-0.8-0.3-1.6-0.5-2.4-0.5c-1.4,0-2.8,0.4-4,1.1c-0.2,0.1-0.3,0.2-0.5,0.3L54.9,30.5z"/>
				<polygon class="st0" points="52.9,29.8 52.7,29.8 48.2,29.8 43.2,44.8 39,29.8 35.2,29.8 31,44.8 26.1,29.8 21.3,29.8 28.9,53 
					32.8,53 37.1,38.7 41.4,53 45,53 45.4,53 				"/>
				<polygon class="st0" points="41.6,52.4 37,36.8 32.3,52.4 29.1,52.4 21.8,30.1 25.6,30.1 30.9,46.2 35.4,30.1 38.4,30.1 
					43,46.2 48.3,30.1 52.1,30.1 44.8,52.4 				"/>
			</g>
			<path class="st0" d="M61,48.1c-0.2,0.1-0.4,0.2-0.6,0.3c-0.8,0.3-1.5,0.4-2.2,0.4c-1.4,0-2.6-0.3-3.7-1c-1.1-0.7-2-1.6-2.7-2.7
				c-0.5-0.9-0.8-1.9-0.9-2.9l-2,6.2c0.9,1.3,2.1,2.3,3.5,3.1c1.8,1,3.8,1.6,5.9,1.6c1.2,0,2.4-0.2,3.7-0.6c0,0,0,0,0,0L61,48.1z"/>
			<path class="st0" d="M57.9,52.4c-2,0-4-0.5-5.7-1.5c-1.3-0.7-2.3-1.7-3.2-2.8l1.4-4.3c0.2,0.5,0.4,1,0.6,1.4
				c0.7,1.2,1.7,2.2,2.9,2.9c1.2,0.7,2.5,1.1,4,1.1c0.8,0,1.6-0.2,2.4-0.5c0,0,0.1,0,0.1,0l0.6,3.3C60,52.2,59,52.4,57.9,52.4z"/>
			<polygon class="st0" points="9.4,52.9 19.2,32.2 20.7,37 16.7,45.4 24.1,45.4 25,48.2 15.5,48.2 13.3,52.9 			"/>
			<path class="st0" d="M55.2,31c1-0.3,2-0.4,3.1-0.4c1.1,0,2.2,0.2,3.4,0.6c0.7,0.3,1.4,0.6,2.2,1l-1.4,2.9
				c-0.6-0.4-1.2-0.7-1.8-0.9c-0.8-0.3-1.6-0.5-2.4-0.5c-1.4,0-2.8,0.4-4,1.1c-0.2,0.1-0.3,0.2-0.5,0.3L55.2,31z"/>
			<polygon class="st0" points="41.9,52.9 37.3,37.3 32.6,52.9 29.4,52.9 22.1,30.6 25.9,30.6 31.2,46.7 35.7,30.6 38.7,30.6 
				43.3,46.7 48.6,30.6 52.4,30.6 45.1,52.9 			"/>
			<path class="st0" d="M58.3,52.9c-2,0-4-0.5-5.7-1.5c-1.3-0.7-2.3-1.7-3.2-2.8l1.4-4.3c0.2,0.5,0.4,1,0.6,1.4
				c0.7,1.2,1.7,2.2,2.9,2.9c1.2,0.7,2.5,1.1,4,1.1c0.8,0,1.6-0.2,2.4-0.5c0,0,0.1,0,0.1,0l0.6,3.3C60.3,52.7,59.3,52.9,58.3,52.9z"
				/>
		</g>
		<g>
			<g>
				<g>
					<g>
						<path class="st0" d="M37.3,69.5c-7.5,0-14.9-2.9-20.4-8.4c-0.3-0.2-0.3-0.7,0-0.9c0.3-0.3,0.7-0.3,0.9,0
							c7.2,7.1,17.7,9.7,27.4,6.8C54,64.4,61,57.6,63.8,48.8c0.1-0.3,0.5-0.5,0.8-0.4c0.3,0.1,0.5,0.5,0.4,0.8
							c-2.9,9.3-10.2,16.4-19.5,19.2C42.8,69.1,40,69.5,37.3,69.5z"/>
					</g>
				</g>
			</g>
			<g>
				<path class="st0" d="M9.3,46.6c-0.3,0-0.6-0.2-0.6-0.5C7.3,39,8.5,31.7,12.3,25.5C16,19.2,22,14.6,29,12.5
					c10.2-3,21.3-0.2,28.9,7.3c0.3,0.3,0.3,0.7,0,0.9c-0.3,0.3-0.7,0.3-0.9,0c-7.2-7.2-17.8-9.9-27.6-7C15.4,17.9,7.1,31.7,10,45.9
					c0.1,0.3-0.2,0.7-0.5,0.8C9.4,46.6,9.4,46.6,9.3,46.6z"/>
			</g>
		</g>
	</g>
</g>
</svg>
